<svg xmlns="http://www.w3.org/2000/svg" viewBox="0 0 220.58 68.8"><defs><style>.cls-1{fill:#fff;}</style></defs><g id="Calque_2" data-name="Calque 2"><g id="Layer_1" data-name="Layer 1"><g id="aXffTE.tif"><path class="cls-1" d="M195.55,28.54c2.55-3.93,9.68-3.78,11.6.58a1.55,1.55,0,0,0,.21-.25,6.53,6.53,0,0,1,5-3.08,9.11,9.11,0,0,1,3.71.24,5.6,5.6,0,0,1,4.06,4.31,16.34,16.34,0,0,1,.42,3.56c.06,2.91,0,5.83,0,8.75a5.72,5.72,0,0,1,0,.59,1.19,1.19,0,0,1-1.3,1A1.15,1.15,0,0,1,218,43.23a5.08,5.08,0,0,1,0-.68c0-2.77,0-5.54,0-8.32a13.79,13.79,0,0,0-.31-2.79,4,4,0,0,0-3.36-3.29,4.73,4.73,0,0,0-5,1.82,6.76,6.76,0,0,0-1.27,4c0,2.8,0,5.61,0,8.42,0,.21,0,.42,0,.63a1.21,1.21,0,0,1-1.36,1.25A1.19,1.19,0,0,1,205.45,43c0-2.94,0-5.87,0-8.81a12.16,12.16,0,0,0-.37-2.88,4.2,4.2,0,0,0-4.7-3.2,5,5,0,0,0-4.64,4.48,12.91,12.91,0,0,0-.2,2.32c0,2.58,0,5.16,0,7.74a4.28,4.28,0,0,1-.07.72,1.12,1.12,0,0,1-1.2,1,1.16,1.16,0,0,1-1.28-.95,2.86,2.86,0,0,1-.06-.58V27.48c0-1.1.5-1.6,1.48-1.52a1,1,0,0,1,1.05.91C195.51,27.39,195.51,27.92,195.55,28.54Z"/><path class="cls-1" d="M115.07,29a.36.36,0,0,0,.1-.07,7.75,7.75,0,0,1,5.55-3.14,9.78,9.78,0,0,1,6.34,1.11,8.44,8.44,0,0,1,4.16,6.37,10.49,10.49,0,0,1-1,6.8,8.25,8.25,0,0,1-6.82,4.37,9.17,9.17,0,0,1-6.08-1.24,21.64,21.64,0,0,1-2.26-1.9c0,.05,0,.22,0,.39V49.6a3.54,3.54,0,0,1-.06.73,1.17,1.17,0,0,1-1.27,1,1.14,1.14,0,0,1-1.23-1,3.35,3.35,0,0,1,0-.63q0-11.06,0-22.1a3.78,3.78,0,0,1,0-.67,1.1,1.1,0,0,1,1.22-.95,1.15,1.15,0,0,1,1.27,1,4.9,4.9,0,0,1,.06.77c0,.42,0,.85,0,1.27C115,29,115,29,115.07,29Zm6.66,13.17a6.83,6.83,0,0,0,4.79-1.69A7.14,7.14,0,0,0,128.65,34c-.76-6.24-7.49-7.23-10.89-4.74A6.87,6.87,0,0,0,115,35.37,6.61,6.61,0,0,0,121.73,42.2Z"/><path class="cls-1" d="M97.33,41.21A7.06,7.06,0,0,1,93.52,44a9.72,9.72,0,0,1-9.14-1.37,8.26,8.26,0,0,1-3.08-5.36,11.12,11.12,0,0,1,.59-6.3A8.2,8.2,0,0,1,89,25.79a9.17,9.17,0,0,1,6.58,1.48A21,21,0,0,1,97.41,29c0-.12,0-.29,0-.46,0-.52,0-1,.06-1.55a1.11,1.11,0,0,1,1.22-1,1.14,1.14,0,0,1,1.28.95,4.29,4.29,0,0,1,0,.72v15a3.88,3.88,0,0,1,0,.59,1.28,1.28,0,0,1-2.53,0c0-.66,0-1.33,0-2Zm.07-6.07a5.61,5.61,0,0,0,0-.58,6.39,6.39,0,0,0-3.6-5.76,6.94,6.94,0,0,0-7.33.52,6.57,6.57,0,0,0-2.72,5.74c0,2.67.9,4.94,3.35,6.26a7,7,0,0,0,7.27-.18C96.58,39.8,97.38,37.64,97.4,35.14Z"/><path class="cls-1" d="M138.07,28.84a8,8,0,0,1,3.12-2.4,9.66,9.66,0,0,1,7.17-.14,6.4,6.4,0,0,1,4.11,5.3,15.24,15.24,0,0,1,.22,2.61c0,2.83,0,5.65,0,8.47a5.62,5.62,0,0,1,0,.58,1.14,1.14,0,0,1-1.26,1,1.17,1.17,0,0,1-1.27-1,6.78,6.78,0,0,1,0-.78c0-3,0-5.9-.05-8.85A6,6,0,0,0,148.9,30a5.35,5.35,0,0,0-4.78-1.89,5.92,5.92,0,0,0-6,5.61,15.07,15.07,0,0,0-.09,1.65c0,2.43,0,4.86,0,7.29a3.17,3.17,0,0,1-.09.82,1.12,1.12,0,0,1-1.19.86,1.14,1.14,0,0,1-1.23-.83,2.8,2.8,0,0,1-.09-.77q0-11.79,0-23.59a2.86,2.86,0,0,1,.1-.77,1.16,1.16,0,0,1,1.24-.82,1.13,1.13,0,0,1,1.16.84,3.19,3.19,0,0,1,.1.87c0,3,0,6.06,0,9.1Z"/><path class="cls-1" d="M166,44.55c-3.42-.1-6.23-1.14-8.1-3.95a9.86,9.86,0,0,1-1.29-7.89,8.68,8.68,0,0,1,8-6.93A10.58,10.58,0,0,1,170.89,27,8.27,8.27,0,0,1,175,32.43a10,10,0,0,1-1,7.75,8.58,8.58,0,0,1-6.3,4.19C167.12,44.48,166.48,44.51,166,44.55Zm-7-9.44c0,.13,0,.26,0,.39.13,2.65,1.15,4.82,3.64,6a7,7,0,0,0,7.53-.69,6.74,6.74,0,0,0,2.52-6.13c-.15-2.7-1.27-4.88-3.86-6a7,7,0,0,0-7.36.82A6.65,6.65,0,0,0,159,35.11Z"/><path class="cls-1" d="M104.9,30.89V19.07c0-.87.27-1.31.89-1.5a1.24,1.24,0,0,1,1.67,1,4.46,4.46,0,0,1,.05.63q0,11.7,0,23.4a3.44,3.44,0,0,1-.06.72,1.13,1.13,0,0,1-1.21,1,1.15,1.15,0,0,1-1.27-1,3.94,3.94,0,0,1-.06-.77Z"/><path class="cls-1" d="M182.15,29.35A6.45,6.45,0,0,1,186.72,26a11.37,11.37,0,0,1,1.93-.19A1.14,1.14,0,0,1,190,27a1.17,1.17,0,0,1-1.27,1.32,7.65,7.65,0,0,0-3.51.83,6,6,0,0,0-2.89,4.55,17.58,17.58,0,0,0-.22,2.71c0,2.06,0,4.12,0,6.18a3.94,3.94,0,0,1-.07.77,1.12,1.12,0,0,1-1.2.92,1.14,1.14,0,0,1-1.26-.91,3.45,3.45,0,0,1-.07-.72q0-7.53,0-15.07a3.3,3.3,0,0,1,.08-.77,1.14,1.14,0,0,1,1.24-.87,1.11,1.11,0,0,1,1.21.91,3.45,3.45,0,0,1,.07.72c0,.53,0,1.07,0,1.6C182.08,29.21,182.1,29.24,182.15,29.35Z"/></g><path class="cls-1" d="M67.49,33.9l-2.25-5.85a1.62,1.62,0,0,0-2.74-.47L47.15,45.8a3.83,3.83,0,0,1-6.51-1.1L32.08,22.39a3.83,3.83,0,0,1,4-5.18l23.49,2.62a1.61,1.61,0,0,0,1.68-2.18l-1.92-5A19.7,19.7,0,0,0,33.9,1.31L12.63,9.47A19.7,19.7,0,0,0,1.31,34.9L9.47,56.17A19.7,19.7,0,0,0,34.9,67.49l21.27-8.16A19.7,19.7,0,0,0,67.49,33.9Z"/></g></g></svg>