<svg width="220" height="45" viewBox="0 0 220 45" fill="none" xmlns="http://www.w3.org/2000/svg">
<path d="M4.47 17.88V28.65C4.47 29.85 4.69 30.68 5.13 31.14C5.57 31.58 6.35 31.8 7.47 31.8H9.3V33H7.26C5.84 33 4.79 32.67 4.11 32.01C3.45 31.33 3.12 30.21 3.12 28.65V17.88H0.66V16.71H3.12V12.57H4.47V16.71H9.3V17.88H4.47ZM20.0304 33.24C18.5104 33.24 17.1404 32.9 15.9204 32.22C14.7004 31.54 13.7404 30.57 13.0404 29.31C12.3604 28.03 12.0204 26.54 12.0204 24.84C12.0204 23.16 12.3704 21.69 13.0704 20.43C13.7704 19.15 14.7304 18.18 15.9504 17.52C17.1904 16.84 18.5704 16.5 20.0904 16.5C21.6104 16.5 22.9804 16.84 24.2004 17.52C25.4204 18.18 26.3704 19.14 27.0504 20.4C27.7504 21.66 28.1004 23.14 28.1004 24.84C28.1004 26.54 27.7504 28.03 27.0504 29.31C26.3504 30.57 25.3804 31.54 24.1404 32.22C22.9204 32.9 21.5504 33.24 20.0304 33.24ZM20.0304 32.04C21.2104 32.04 22.3104 31.78 23.3304 31.26C24.3704 30.72 25.2004 29.91 25.8204 28.83C26.4404 27.75 26.7504 26.42 26.7504 24.84C26.7504 23.28 26.4404 21.96 25.8204 20.88C25.2004 19.8 24.3804 19 23.3604 18.48C22.3404 17.94 21.2404 17.67 20.0604 17.67C18.8804 17.67 17.7804 17.94 16.7604 18.48C15.7604 19 14.9504 19.8 14.3304 20.88C13.7104 21.96 13.4004 23.28 13.4004 24.84C13.4004 26.42 13.7004 27.75 14.3004 28.83C14.9204 29.91 15.7304 30.72 16.7304 31.26C17.7504 31.78 18.8504 32.04 20.0304 32.04ZM45.9663 16.71V33H44.6163V29.46C44.1563 30.7 43.3863 31.65 42.3063 32.31C41.2463 32.95 40.0263 33.27 38.6463 33.27C36.7063 33.27 35.1163 32.68 33.8763 31.5C32.6563 30.3 32.0463 28.53 32.0463 26.19V16.71H33.3663V26.1C33.3663 28.04 33.8563 29.53 34.8363 30.57C35.8163 31.59 37.1463 32.1 38.8263 32.1C40.5863 32.1 41.9863 31.54 43.0263 30.42C44.0863 29.3 44.6163 27.64 44.6163 25.44V16.71H45.9663ZM52.8977 17.88V28.65C52.8977 29.85 53.1177 30.68 53.5577 31.14C53.9977 31.58 54.7777 31.8 55.8977 31.8H57.7277V33H55.6877C54.2677 33 53.2177 32.67 52.5377 32.01C51.8777 31.33 51.5477 30.21 51.5477 28.65V17.88H49.0877V16.71H51.5477V12.57H52.8977V16.71H57.7277V17.88H52.8977ZM59.9381 24.66C59.9381 23 60.2781 21.53 60.9581 20.25C61.6581 18.97 62.5981 17.98 63.7781 17.28C64.9781 16.56 66.2981 16.2 67.7381 16.2C69.0381 16.2 70.1681 16.46 71.1281 16.98C72.1081 17.48 72.8881 18.11 73.4681 18.87V16.47H76.9181V33H73.4681V30.54C72.8881 31.32 72.0981 31.97 71.0981 32.49C70.0981 33.01 68.9581 33.27 67.6781 33.27C66.2581 33.27 64.9581 32.91 63.7781 32.19C62.5981 31.45 61.6581 30.43 60.9581 29.13C60.2781 27.81 59.9381 26.32 59.9381 24.66ZM73.4681 24.72C73.4681 23.58 73.2281 22.59 72.7481 21.75C72.2881 20.91 71.6781 20.27 70.9181 19.83C70.1581 19.39 69.3381 19.17 68.4581 19.17C67.5781 19.17 66.7581 19.39 65.9981 19.83C65.2381 20.25 64.6181 20.88 64.1381 21.72C63.6781 22.54 63.4481 23.52 63.4481 24.66C63.4481 25.8 63.6781 26.8 64.1381 27.66C64.6181 28.52 65.2381 29.18 65.9981 29.64C66.7781 30.08 67.5981 30.3 68.4581 30.3C69.3381 30.3 70.1581 30.08 70.9181 29.64C71.6781 29.2 72.2881 28.56 72.7481 27.72C73.2281 26.86 73.4681 25.86 73.4681 24.72ZM84.8302 18.9C85.4102 18.14 86.2002 17.5 87.2002 16.98C88.2002 16.46 89.3302 16.2 90.5902 16.2C92.0302 16.2 93.3402 16.56 94.5202 17.28C95.7202 17.98 96.6602 18.97 97.3402 20.25C98.0202 21.53 98.3602 23 98.3602 24.66C98.3602 26.32 98.0202 27.81 97.3402 29.13C96.6602 30.43 95.7202 31.45 94.5202 32.19C93.3402 32.91 92.0302 33.27 90.5902 33.27C89.3302 33.27 88.2102 33.02 87.2302 32.52C86.2502 32 85.4502 31.36 84.8302 30.6V40.86H81.4102V16.47H84.8302V18.9ZM94.8802 24.66C94.8802 23.52 94.6402 22.54 94.1602 21.72C93.7002 20.88 93.0802 20.25 92.3002 19.83C91.5402 19.39 90.7202 19.17 89.8402 19.17C88.9802 19.17 88.1602 19.39 87.3802 19.83C86.6202 20.27 86.0002 20.91 85.5202 21.75C85.0602 22.59 84.8302 23.58 84.8302 24.72C84.8302 25.86 85.0602 26.86 85.5202 27.72C86.0002 28.56 86.6202 29.2 87.3802 29.64C88.1602 30.08 88.9802 30.3 89.8402 30.3C90.7202 30.3 91.5402 30.08 92.3002 29.64C93.0802 29.18 93.7002 28.52 94.1602 27.66C94.6402 26.8 94.8802 25.8 94.8802 24.66ZM105.162 18.9C105.742 18.14 106.532 17.5 107.532 16.98C108.532 16.46 109.662 16.2 110.922 16.2C112.362 16.2 113.672 16.56 114.852 17.28C116.052 17.98 116.992 18.97 117.672 20.25C118.352 21.53 118.692 23 118.692 24.66C118.692 26.32 118.352 27.81 117.672 29.13C116.992 30.43 116.052 31.45 114.852 32.19C113.672 32.91 112.362 33.27 110.922 33.27C109.662 33.27 108.542 33.02 107.562 32.52C106.582 32 105.782 31.36 105.162 30.6V40.86H101.742V16.47H105.162V18.9ZM115.212 24.66C115.212 23.52 114.972 22.54 114.492 21.72C114.032 20.88 113.412 20.25 112.632 19.83C111.872 19.39 111.052 19.17 110.172 19.17C109.312 19.17 108.492 19.39 107.712 19.83C106.952 20.27 106.332 20.91 105.852 21.75C105.392 22.59 105.162 23.58 105.162 24.72C105.162 25.86 105.392 26.86 105.852 27.72C106.332 28.56 106.952 29.2 107.712 29.64C108.492 30.08 109.312 30.3 110.172 30.3C111.052 30.3 111.872 30.08 112.632 29.64C113.412 29.18 114.032 28.52 114.492 27.66C114.972 26.8 115.212 25.8 115.212 24.66ZM125.494 18.87C125.994 18.03 126.654 17.38 127.474 16.92C128.314 16.44 129.304 16.2 130.444 16.2V19.74H129.574C128.234 19.74 127.214 20.08 126.514 20.76C125.834 21.44 125.494 22.62 125.494 24.3V33H122.074V16.47H125.494V18.87ZM148.738 24.33C148.738 24.95 148.698 25.51 148.618 26.01H135.988C136.088 27.33 136.578 28.39 137.458 29.19C138.338 29.99 139.418 30.39 140.698 30.39C142.538 30.39 143.838 29.62 144.598 28.08H148.288C147.788 29.6 146.878 30.85 145.558 31.83C144.258 32.79 142.638 33.27 140.698 33.27C139.118 33.27 137.698 32.92 136.438 32.22C135.198 31.5 134.218 30.5 133.498 29.22C132.798 27.92 132.448 26.42 132.448 24.72C132.448 23.02 132.788 21.53 133.468 20.25C134.168 18.95 135.138 17.95 136.378 17.25C137.638 16.55 139.078 16.2 140.698 16.2C142.258 16.2 143.648 16.54 144.868 17.22C146.088 17.9 147.038 18.86 147.718 20.1C148.398 21.32 148.738 22.73 148.738 24.33ZM145.168 23.25C145.148 21.99 144.698 20.98 143.818 20.22C142.938 19.46 141.848 19.08 140.548 19.08C139.368 19.08 138.358 19.46 137.518 20.22C136.678 20.96 136.178 21.97 136.018 23.25H145.168ZM160.444 16.2C161.744 16.2 162.904 16.47 163.924 17.01C164.964 17.55 165.774 18.35 166.354 19.41C166.934 20.47 167.224 21.75 167.224 23.25V33H163.834V23.76C163.834 22.28 163.464 21.15 162.724 20.37C161.984 19.57 160.974 19.17 159.694 19.17C158.414 19.17 157.394 19.57 156.634 20.37C155.894 21.15 155.524 22.28 155.524 23.76V33H152.104V16.47H155.524V18.36C156.084 17.68 156.794 17.15 157.654 16.77C158.534 16.39 159.464 16.2 160.444 16.2ZM170.446 24.66C170.446 23 170.786 21.53 171.466 20.25C172.166 18.97 173.106 17.98 174.286 17.28C175.486 16.56 176.816 16.2 178.276 16.2C179.356 16.2 180.416 16.44 181.456 16.92C182.516 17.38 183.356 18 183.976 18.78V10.8H187.426V33H183.976V30.51C183.416 31.31 182.636 31.97 181.636 32.49C180.656 33.01 179.526 33.27 178.246 33.27C176.806 33.27 175.486 32.91 174.286 32.19C173.106 31.45 172.166 30.43 171.466 29.13C170.786 27.81 170.446 26.32 170.446 24.66ZM183.976 24.72C183.976 23.58 183.736 22.59 183.256 21.75C182.796 20.91 182.186 20.27 181.426 19.83C180.666 19.39 179.846 19.17 178.966 19.17C178.086 19.17 177.266 19.39 176.506 19.83C175.746 20.25 175.126 20.88 174.646 21.72C174.186 22.54 173.956 23.52 173.956 24.66C173.956 25.8 174.186 26.8 174.646 27.66C175.126 28.52 175.746 29.18 176.506 29.64C177.286 30.08 178.106 30.3 178.966 30.3C179.846 30.3 180.666 30.08 181.426 29.64C182.186 29.2 182.796 28.56 183.256 27.72C183.736 26.86 183.976 25.86 183.976 24.72ZM195.338 18.87C195.838 18.03 196.498 17.38 197.318 16.92C198.158 16.44 199.148 16.2 200.288 16.2V19.74H199.418C198.078 19.74 197.058 20.08 196.358 20.76C195.678 21.44 195.338 22.62 195.338 24.3V33H191.918V16.47H195.338V18.87ZM218.582 24.33C218.582 24.95 218.542 25.51 218.462 26.01H205.832C205.932 27.33 206.422 28.39 207.302 29.19C208.182 29.99 209.262 30.39 210.542 30.39C212.382 30.39 213.682 29.62 214.442 28.08H218.132C217.632 29.6 216.722 30.85 215.402 31.83C214.102 32.79 212.482 33.27 210.542 33.27C208.962 33.27 207.542 32.92 206.282 32.22C205.042 31.5 204.062 30.5 203.342 29.22C202.642 27.92 202.292 26.42 202.292 24.72C202.292 23.02 202.632 21.53 203.312 20.25C204.012 18.95 204.982 17.95 206.222 17.25C207.482 16.55 208.922 16.2 210.542 16.2C212.102 16.2 213.492 16.54 214.712 17.22C215.932 17.9 216.882 18.86 217.562 20.1C218.242 21.32 218.582 22.73 218.582 24.33ZM215.012 23.25C214.992 21.99 214.542 20.98 213.662 20.22C212.782 19.46 211.692 19.08 210.392 19.08C209.212 19.08 208.202 19.46 207.362 20.22C206.522 20.96 206.022 21.97 205.862 23.25H215.012Z" fill="white"/>
</svg>
